<mxfile host="app.diagrams.net" modified="2024-01-24T06:04:35.112Z" agent="Mozilla/5.0 (Windows NT 10.0; Win64; x64) AppleWebKit/537.36 (KHTML, like Gecko) Chrome/120.0.0.0 Safari/537.36" version="23.0.0" etag="fhgDi8rzFnzgNDp5g64A" type="github">
  <diagram name="Page-1" id="tBrSxNW-1jIS9xVClPfZ">
    <mxGraphModel>
      <root>
        <mxCell id="0" />
        <mxCell id="1" parent="0" />
      </root>
    </mxGraphModel>
  </diagram>
</mxfile>
